<?xml version="1.0" standalone="no"?>
<!DOCTYPE svg PUBLIC "-//W3C//DTD SVG 20010904//EN"
 "http://www.w3.org/TR/2001/REC-SVG-20010904/DTD/svg10.dtd">
<svg version="1.0" xmlns="http://www.w3.org/2000/svg"
 width="1280.000000pt" height="1280.000000pt" viewBox="0 0 1280.000000 1280.000000"
 preserveAspectRatio="xMidYMid meet">
<metadata>
Created by potrace 1.15, written by Peter Selinger 2001-2017
</metadata>
<g transform="translate(0.000000,1280.000000) scale(0.100000,-0.100000)"
fill="#000000" stroke="none">
<path d="M5962 11219 c-522 -19 -954 -72 -1308 -159 -213 -52 -341 -97 -499
-174 -281 -137 -442 -304 -516 -531 -20 -63 -22 -95 -27 -325 -5 -294 11 -723
33 -890 42 -318 101 -504 236 -743 131 -231 234 -350 774 -899 762 -775 939
-969 967 -1060 21 -70 -18 -146 -169 -333 -98 -121 -142 -169 -679 -741 -457
-486 -582 -627 -709 -798 -347 -468 -419 -756 -408 -1641 5 -410 15 -463 126
-664 233 -424 919 -671 2035 -732 285 -15 1082 -6 1332 15 844 73 1397 239
1717 514 88 76 152 161 214 284 82 164 92 215 94 488 6 903 -56 1219 -311
1602 -155 232 -292 389 -859 978 -508 528 -610 639 -711 773 -87 115 -124 184
-124 229 0 44 41 111 143 238 109 135 166 196 725 779 592 618 682 721 798
917 129 217 197 388 239 598 46 231 50 300 50 851 0 584 2 565 -77 717 -170
328 -667 554 -1438 652 -438 57 -1063 77 -1648 55z m958 -359 c867 -44 1531
-202 1710 -407 117 -132 -92 -304 -533 -437 -1008 -306 -2282 -327 -3327 -55
-317 82 -523 168 -624 259 -83 76 -96 141 -42 202 74 83 200 151 406 219 362
119 848 191 1495 222 158 8 742 6 915 -3z m1904 -1197 c12 -460 -19 -704 -111
-888 -84 -167 -297 -430 -743 -914 -118 -129 -298 -325 -399 -435 -434 -472
-579 -656 -670 -845 -33 -70 -36 -83 -36 -166 1 -105 20 -160 114 -329 114
-205 169 -269 826 -966 560 -594 679 -727 818 -915 134 -180 169 -261 208
-480 22 -128 45 -698 35 -905 -16 -350 -122 -486 -498 -644 -366 -153 -827
-245 -1438 -287 -228 -16 -908 -16 -1125 -1 -663 48 -1147 159 -1510 346 -127
65 -207 141 -259 247 -55 111 -63 174 -70 524 -12 625 28 878 175 1098 139
209 247 334 879 1017 539 583 569 617 681 766 89 119 197 314 223 403 44 151
-8 292 -205 554 -122 162 -213 263 -683 757 -591 621 -748 797 -893 998 -108
150 -147 240 -184 422 -16 76 -22 169 -30 458 -6 200 -8 379 -5 398 10 49 35
45 169 -25 333 -175 752 -302 1222 -370 583 -84 1335 -88 1960 -10 573 72
1066 223 1445 443 25 14 57 26 71 26 l26 0 7 -277z"/>
<path d="M8045 8703 c-145 -88 -398 -215 -554 -277 -854 -344 -1643 -306
-2516 120 -82 40 -203 104 -267 143 -65 38 -118 68 -118 65 0 -2 35 -54 78
-115 42 -61 76 -115 75 -119 -6 -23 235 -297 740 -842 471 -508 555 -603 651
-728 135 -175 143 -203 231 -800 15 -96 30 -180 34 -188 8 -15 31 120 62 368
11 91 31 218 44 282 52 254 62 268 780 1068 533 595 705 795 728 850 6 14 45
74 85 133 41 59 73 109 71 111 -2 1 -58 -31 -124 -71z"/>
<path d="M6394 4424 c-41 -101 -108 -232 -150 -295 -82 -124 -170 -176 -1121
-672 -122 -64 -259 -139 -305 -168 -286 -179 -465 -367 -533 -560 -14 -38 -13
-39 15 -56 16 -9 27 -20 25 -24 -30 -47 395 -203 756 -278 520 -107 1147 -142
1814 -100 562 35 1073 142 1462 305 106 44 153 75 153 100 0 7 10 19 23 25 12
6 23 13 25 14 7 6 -48 126 -81 178 -53 83 -178 209 -290 293 -139 105 -281
185 -717 406 -397 200 -615 319 -732 395 -108 71 -157 133 -248 314 l-80 161
-16 -38z"/>
</g>
</svg>
